<svg width="204" height="204" viewBox="0 0 204 204" fill="none" xmlns="http://www.w3.org/2000/svg">
<g clip-path="url(#clip0_20_613)">
<path d="M89.2035 166.435L88.2764 166.312L87.4982 166.831L62.8847 183.229C61.8975 183.886 60.7375 184.236 59.5513 184.235C58.3652 184.233 57.2061 183.88 56.2205 183.22C55.235 182.56 54.4672 181.623 54.0142 180.526C53.5612 179.43 53.4433 178.224 53.6755 177.061L57.452 158.212L57.8059 156.446L56.2387 155.559C34.4721 143.23 19.6123 122.134 19.6123 97.6064C19.6123 58.1742 57.5577 27.9506 101.999 27.9506C146.441 27.9506 184.386 58.1742 184.386 97.6064C184.386 137.039 146.441 167.262 101.999 167.262C97.6403 167.262 93.3753 166.986 89.2035 166.435ZM95.9998 96.0305V67.9001C95.9998 64.9892 94.8435 62.1976 92.7852 60.1393C90.7269 58.081 87.9352 56.9246 85.0243 56.9246C82.1134 56.9246 79.3218 58.081 77.2635 60.1393C75.2052 62.1976 74.0488 64.9892 74.0488 67.9001V127.313C74.0488 130.224 75.2052 133.015 77.2635 135.074C79.3218 137.132 82.1134 138.288 85.0243 138.288C87.9352 138.288 90.7269 137.132 92.7852 135.074C94.8435 133.015 95.9998 130.224 95.9998 127.313V116.157L110.389 134.144C111.268 135.305 112.37 136.28 113.63 137.011C114.901 137.749 116.308 138.225 117.766 138.409C119.225 138.593 120.706 138.482 122.121 138.083C123.536 137.683 124.856 137.004 126.003 136.085C127.15 135.165 128.101 134.025 128.799 132.731C129.497 131.437 129.929 130.016 130.067 128.553C130.205 127.089 130.048 125.612 129.605 124.211L127.233 124.961L129.605 124.211C129.166 122.822 128.455 121.535 127.514 120.425L116.05 106.094L127.537 91.7341L127.561 91.7045L127.584 91.6742C129.297 89.3943 130.055 86.5374 129.698 83.7082C129.341 80.8791 127.897 78.3 125.672 76.5169C123.446 74.7338 120.615 73.8868 117.776 74.1552C114.937 74.4236 112.314 75.7863 110.462 77.9548L110.436 77.9851L110.411 78.0162L95.9998 96.0305Z" fill="#F1592A" stroke="#F1592A" stroke-width="4.97602"/>
</g>
<defs>
<clipPath id="clip0_20_613">
<rect width="203.7" height="203.7" fill="white" transform="translate(0.149902)"/>
</clipPath>
</defs>
</svg>
