<svg width="10" height="10" viewBox="0 0 10 10" fill="none" xmlns="http://www.w3.org/2000/svg">
<path d="M2.4158 6.44963H5.32684C5.46373 6.44963 5.57647 6.39803 5.66505 6.29484C5.75363 6.192 5.79792 6.06444 5.79792 5.91216C5.79792 5.75988 5.7517 5.63214 5.65925 5.52894C5.56648 5.42611 5.45165 5.37469 5.31476 5.37469H2.40372C2.26682 5.37469 2.15409 5.42611 2.06551 5.52894C1.97693 5.63214 1.93264 5.75988 1.93264 5.91216C1.93264 6.06444 1.97886 6.192 2.07131 6.29484C2.16407 6.39803 2.2789 6.44963 2.4158 6.44963ZM2.4158 4.83722H7.25948C7.39637 4.83722 7.50911 4.78562 7.59769 4.68243C7.68627 4.57959 7.73056 4.45204 7.73056 4.29975C7.73056 4.14747 7.68417 4.01973 7.59141 3.91654C7.49896 3.8137 7.38429 3.76228 7.2474 3.76228H2.40372C2.26682 3.76228 2.15409 3.8137 2.06551 3.91654C1.97693 4.01973 1.93264 4.14747 1.93264 4.29975C1.93264 4.45204 1.97886 4.57959 2.07131 4.68243C2.16407 4.78562 2.2789 4.83722 2.4158 4.83722ZM2.4158 3.22481H7.25948C7.39637 3.22481 7.50911 3.1734 7.59769 3.07056C7.68627 2.96737 7.73056 2.83963 7.73056 2.68735C7.73056 2.53506 7.68417 2.40732 7.59141 2.30413C7.49896 2.20129 7.38429 2.14988 7.2474 2.14988H2.40372C2.26682 2.14988 2.15409 2.20129 2.06551 2.30413C1.97693 2.40732 1.93264 2.53506 1.93264 2.68735C1.93264 2.83963 1.97886 2.96737 2.07131 3.07056C2.16407 3.1734 2.2789 3.22481 2.4158 3.22481ZM0 9.44602V1.07494C0 0.77933 0.0946993 0.526182 0.284098 0.315494C0.473174 0.105165 0.700582 0 0.96632 0H8.69688C8.96261 0 9.19018 0.105165 9.37958 0.315494C9.56866 0.526182 9.6632 0.77933 9.6632 1.07494V7.52457C9.6632 7.82017 9.56866 8.07332 9.37958 8.28401C9.19018 8.49434 8.96261 8.5995 8.69688 8.5995H1.93264L0.821372 9.83568C0.668371 10.0059 0.493145 10.0439 0.295694 9.94963C0.0985646 9.85575 0 9.68788 0 9.44602Z" fill="#5A5A5A"/>
</svg>
