<svg width="41" height="41" viewBox="0 0 41 41" fill="none" xmlns="http://www.w3.org/2000/svg">
<path d="M32.9377 31.1247C33.0568 31.2438 33.1512 31.3851 33.2156 31.5406C33.28 31.6962 33.3132 31.8629 33.3132 32.0312C33.3132 32.1996 33.28 32.3663 33.2156 32.5218C33.1512 32.6774 33.0568 32.8187 32.9377 32.9377C32.8187 33.0568 32.6774 33.1512 32.5218 33.2156C32.3663 33.28 32.1996 33.3132 32.0312 33.3132C31.8629 33.3132 31.6962 33.28 31.5406 33.2156C31.3851 33.1512 31.2438 33.0568 31.1247 32.9377L20.5 22.3113L9.87521 32.9377C9.6348 33.1781 9.30873 33.3132 8.96873 33.3132C8.62873 33.3132 8.30266 33.1781 8.06225 32.9377C7.82183 32.6973 7.68677 32.3712 7.68677 32.0312C7.68677 31.6912 7.82183 31.3652 8.06225 31.1247L18.6886 20.5L8.06225 9.87521C7.82183 9.6348 7.68677 9.30873 7.68677 8.96873C7.68677 8.62873 7.82183 8.30266 8.06225 8.06225C8.30266 7.82183 8.62873 7.68677 8.96873 7.68677C9.30873 7.68677 9.6348 7.82183 9.87521 8.06225L20.5 18.6886L31.1247 8.06225C31.3652 7.82183 31.6912 7.68677 32.0312 7.68677C32.3712 7.68677 32.6973 7.82183 32.9377 8.06225C33.1781 8.30266 33.3132 8.62873 33.3132 8.96873C33.3132 9.30873 33.1781 9.6348 32.9377 9.87521L22.3113 20.5L32.9377 31.1247Z" fill="black"/>
</svg>
