<svg width="176" height="36" viewBox="0 0 176 36" fill="none" xmlns="http://www.w3.org/2000/svg">
<path d="M1.41904 18.1429H19.8823V20.4784H1.41904V18.1429ZM9.19652 15.0804H12.1048V19.0463H9.19652V15.0804ZM3.64433 14.155H17.7892V16.4685H3.64433V14.155ZM3.64433 9.44008H17.679V11.7315H6.55262V15.6312H3.64433V9.44008ZM10.5846 21.4919C14.9911 21.4919 17.657 22.8359 17.657 25.2374C17.657 27.6389 14.9911 28.9829 10.5846 28.9829C6.17807 28.9829 3.4901 27.6389 3.4901 25.2374C3.4901 22.8359 6.17807 21.4919 10.5846 21.4919ZM10.5846 23.6951C7.85254 23.6951 6.46449 24.2019 6.46449 25.2374C6.46449 26.295 7.85254 26.7576 10.5846 26.7576C13.3166 26.7576 14.7047 26.295 14.7047 25.2374C14.7047 24.2019 13.3166 23.6951 10.5846 23.6951ZM23.9346 9.41805H36.8676V11.7535H23.9346V9.41805ZM21.6872 16.4685H40.1505V18.8039H21.6872V16.4685ZM29.4207 18.1209H32.351V22.3952H29.4207V18.1209ZM35.105 9.41805H37.9913V11.0485C37.9913 12.8111 37.9913 14.8601 37.3524 17.548L34.4661 17.2616C35.105 14.6398 35.105 12.767 35.105 11.0485V9.41805ZM23.538 21.6681H38.0133V28.9609H35.083V23.9815H23.538V21.6681ZM41.9554 18.1429H60.4187V20.4784H41.9554V18.1429ZM49.7329 15.0804H52.6412V19.0463H49.7329V15.0804ZM44.1807 14.155H58.3256V16.4685H44.1807V14.155ZM44.1807 9.44008H58.2154V11.7315H47.089V15.6312H44.1807V9.44008ZM51.121 21.4919C55.5275 21.4919 58.1934 22.8359 58.1934 25.2374C58.1934 27.6389 55.5275 28.9829 51.121 28.9829C46.7145 28.9829 44.0265 27.6389 44.0265 25.2374C44.0265 22.8359 46.7145 21.4919 51.121 21.4919ZM51.121 23.6951C48.3889 23.6951 47.0009 24.2019 47.0009 25.2374C47.0009 26.295 48.3889 26.7576 51.121 26.7576C53.853 26.7576 55.241 26.295 55.241 25.2374C55.241 24.2019 53.853 23.6951 51.121 23.6951ZM62.9287 17.8785H64.6472C68.6571 17.8785 71.1248 17.7904 73.9449 17.2616L74.2093 19.5971C71.3451 20.1479 68.7673 20.258 64.6472 20.258H62.9287V17.8785ZM62.9066 9.68244H72.2264V15.9617H65.837V19.0022H62.9287V13.7805H69.3401V12.0179H62.9066V9.68244ZM75.333 8.58081H78.2633V20.9631H75.333V8.58081ZM77.4261 13.428H80.9733V15.8295H77.4261V13.428ZM64.6472 21.8885H78.2633V28.9609H75.333V24.2239H64.6472V21.8885ZM102.761 8.55878H105.559V28.9609H102.761V8.55878ZM100.117 16.3363H103.488V18.6937H100.117V16.3363ZM94.3443 10.9163H97.1204C97.1204 16.7769 95.6883 21.5139 89.6073 25.0611L87.9769 22.9901C93.0003 20.0818 94.3443 16.5125 94.3443 11.445V10.9163ZM89.1887 10.9163H95.2697V13.2737H89.1887V10.9163ZM98.2661 8.99943H100.998V28.0796H98.2661V8.99943ZM94.3884 15.5211V17.6802L88.4616 18.3192L88.1311 15.8515L94.3884 15.5211ZM122.302 8.55878H125.254V21.0953H122.302V8.55878ZM111.33 21.9766H125.254V28.9609H122.302V24.3341H111.33V21.9766ZM109.347 17.9006H111.131C115.097 17.9006 117.675 17.8124 120.627 17.3498L120.958 19.6632C117.917 20.192 115.207 20.258 111.131 20.258H109.347V17.9006ZM109.325 9.68244H118.711V15.9617H112.233V19.0022H109.347V13.7805H115.824V12.0179H109.325V9.68244ZM128.535 19.3767H146.999V21.6902H128.535V19.3767ZM136.291 16.9752H139.221V19.9937H136.291V16.9752ZM130.606 22.902H144.751V28.9609H141.821V25.2154H130.606V22.902ZM130.827 15.6973H145.038V17.9226H130.827V15.6973ZM130.827 9.02146H144.883V11.2467H133.735V16.821H130.827V9.02146ZM132.92 12.3704H144.421V14.5076H132.92V12.3704Z" fill="#F1592A"/>
<g clip-path="url(#clip0_24_52)">
<path d="M160.37 25.9747L159.96 25.9206L159.616 26.1498L156.288 28.3667C156.281 28.3719 156.271 28.3747 156.262 28.3747C156.253 28.3746 156.243 28.3718 156.236 28.3666C156.228 28.3614 156.222 28.354 156.218 28.3453C156.215 28.3366 156.214 28.3271 156.215 28.318C156.215 28.3179 156.215 28.3179 156.215 28.3179L156.726 25.7701L156.882 24.9893L156.189 24.5968C153.433 23.0355 151.625 20.4111 151.625 17.4262C151.625 12.6449 156.272 8.77249 162 8.77249C167.727 8.77249 172.375 12.6449 172.375 17.4262C172.375 22.2075 167.727 26.08 162 26.08C161.443 26.08 160.9 26.0447 160.37 25.9747ZM161.294 23.0317L160.516 22.2539L161.294 23.0317C161.577 22.7487 161.777 22.398 161.878 22.0177L162.532 22.8359C162.711 23.0698 162.934 23.2663 163.189 23.4141L163.189 23.4141C163.449 23.5653 163.737 23.6626 164.036 23.7003C164.335 23.738 164.638 23.7152 164.928 23.6335C165.217 23.5517 165.488 23.4126 165.723 23.2244L165.035 22.3659L165.723 23.2244C165.958 23.0361 166.152 22.8026 166.295 22.5376C166.438 22.2727 166.526 21.9817 166.555 21.682C166.583 21.3823 166.551 21.0799 166.46 20.7929C166.372 20.5124 166.229 20.2521 166.04 20.0267L164.877 18.5737L166.049 17.1093L166.059 17.0963L166.069 17.0829C166.42 16.616 166.575 16.031 166.502 15.4516C166.429 14.8723 166.134 14.3442 165.678 13.979C165.222 13.6139 164.642 13.4405 164.061 13.4954C163.48 13.5504 162.943 13.8294 162.563 14.2735L162.552 14.2869L162.541 14.3006L161.952 15.0363V13.41C161.952 12.8139 161.716 12.2423 161.294 11.8208L160.516 12.5986L161.294 11.8208C160.873 11.3993 160.301 11.1625 159.705 11.1625C159.109 11.1625 158.537 11.3993 158.116 11.8208L158.834 12.5387L158.116 11.8208C157.694 12.2423 157.457 12.8139 157.457 13.41V21.4425C157.457 22.0386 157.694 22.6102 158.116 23.0317L158.868 22.279L158.116 23.0317C158.537 23.4532 159.109 23.69 159.705 23.69C160.301 23.69 160.873 23.4532 161.294 23.0317Z" fill="#F1592A" stroke="#F1592A" stroke-width="2.2"/>
</g>
<defs>
<clipPath id="clip0_24_52">
<rect width="27.54" height="27.54" fill="white" transform="translate(148.23 4.22998)"/>
</clipPath>
</defs>
</svg>
