<svg width="21" height="21" viewBox="0 0 21 21" fill="none" xmlns="http://www.w3.org/2000/svg">
<path d="M16.625 4.375L16.625 16.625C16.625 16.8571 16.5328 17.0796 16.3687 17.2437C16.2046 17.4078 15.9821 17.5 15.75 17.5H13.125V15.75H14.875L14.875 5.25H13.125V3.5L15.75 3.5C15.9821 3.5 16.2046 3.59219 16.3687 3.75628C16.5328 3.92038 16.625 4.14294 16.625 4.375ZM4.16325 3.52625L11.1633 1.77625C11.2922 1.74409 11.4268 1.74172 11.5568 1.76934C11.6868 1.79696 11.8088 1.85383 11.9136 1.93564C12.0183 2.01745 12.1031 2.12204 12.1614 2.24149C12.2196 2.36094 12.25 2.49209 12.25 2.625L12.25 18.375C12.2503 18.508 12.2202 18.6394 12.162 18.759C12.1038 18.8786 12.0191 18.9834 11.9143 19.0652C11.8094 19.1471 11.6873 19.204 11.5571 19.2314C11.4269 19.2589 11.2922 19.2563 11.1633 19.2238L4.16325 17.4738C3.97387 17.4265 3.80572 17.3173 3.68554 17.1635C3.56536 17.0097 3.50005 16.8202 3.5 16.625L3.5 4.375C3.50005 4.17982 3.56536 3.99027 3.68554 3.83647C3.80572 3.68268 3.97387 3.57349 4.16325 3.52625ZM7.875 10.6645C7.88508 10.8898 7.98167 11.1025 8.14466 11.2584C8.30765 11.4142 8.52448 11.5012 8.75 11.5012C8.97552 11.5012 9.19235 11.4142 9.35534 11.2584C9.51833 11.1025 9.61492 10.8898 9.625 10.6645V10.3346C9.62488 10.1026 9.53259 9.88005 9.36841 9.71604C9.20423 9.55202 8.98163 9.45995 8.74956 9.46006C8.5175 9.46018 8.29498 9.55248 8.13097 9.71666C7.96696 9.88083 7.87488 10.1034 7.875 10.3355V10.6645Z" fill="#686868"/>
</svg>
